<svg width="34" height="24" viewBox="0 0 34 24" fill="none" xmlns="http://www.w3.org/2000/svg">
  <path fill="#fff" d="M0 0h34v24H0z"/>
  <path fill-rule="evenodd" clip-rule="evenodd" d="M11.56 11.987c0 1.352 1.061 2.401 2.426 2.401.386 0 .717-.076 1.124-.268v-1.056c-.358.359-.675.504-1.082.504-.903 0-1.543-.656-1.543-1.588 0-.883.66-1.58 1.502-1.58.427 0 .75.153 1.123.518V9.862c-.393-.2-.717-.283-1.102-.283-1.358 0-2.447 1.07-2.447 2.408zm-2.3-1.117c0 .248.158.38.696.579 1.02.373 1.322.704 1.322 1.435 0 .89-.653 1.511-1.585 1.511-.682 0-1.178-.269-1.59-.876l.578-.558c.207.4.551.614.978.614.4 0 .696-.277.696-.65a.553.553 0 00-.268-.476c-.09-.055-.269-.138-.62-.262-.842-.303-1.13-.627-1.13-1.261 0-.753.62-1.319 1.433-1.319.504 0 .965.173 1.35.51l-.469.615c-.233-.262-.454-.372-.723-.372-.386 0-.667.22-.667.51zm-2.392 3.414h.896v-4.6h-.896v4.6zM5.036 13.14c-.282.254-.648.365-1.227.365h-.24v-3.042h.24c.58 0 .93.104 1.227.372.31.276.496.705.496 1.145 0 .442-.186.883-.496 1.16zM3.989 9.684H2.673v4.601h1.309c.696 0 1.198-.164 1.64-.531a2.31 2.31 0 00.834-1.766c0-1.358-1.014-2.304-2.467-2.304zm17.003 0l1.226 3.09 1.241-3.09h.972l-1.986 4.719h-.482l-1.95-4.72h.98zm3.844 4.6h2.542v-.779h-1.646v-1.242h1.586v-.779h-1.586v-1.021h1.646v-.78h-2.542v4.601zm4.031-2.482h.262c.573 0 .876-.25.876-.712 0-.448-.303-.682-.862-.682h-.276v1.394zm.434-2.119c1.034 0 1.626.497 1.626 1.359 0 .704-.371 1.167-1.046 1.304l1.446 1.938h-1.102l-1.24-1.848h-.118v1.848h-.895v-4.6h1.33z" fill="#1D1D1B"/>
  <path fill-rule="evenodd" clip-rule="evenodd" d="M19.907 13.319a2.449 2.449 0 00-.742-3.381 2.443 2.443 0 00-3.377.743 2.45 2.45 0 00.743 3.38 2.443 2.443 0 003.376-.742z" fill="url(#Discover__paint0_linear)"/>
  <defs>
    <linearGradient id="Discover__paint0_linear" x1="21.224" y1="11.257" x2="17.103" y2="8.624" gradientUnits="userSpaceOnUse">
      <stop stop-color="#F6A000"/>
      <stop offset=".624" stop-color="#E47E02"/>
      <stop offset="1" stop-color="#D36002"/>
    </linearGradient>
  </defs>
</svg>
