<svg xmlns="http://www.w3.org/2000/svg" viewBox="0 0 24 24"><path fill="#111" d="M21 6H3c-.6 0-1 .4-1 1v11c0 .6.4 1 1 1h18c.6 0 1-.4 1-1V7c0-.6-.4-1-1-1zm0 12H3v-6h18v6zm0-9H3V7h18v2z"/><g transform="translate(0 2)"><path d="M15.5892857,12.4210758 C15.6378971,12.4626698 15.6765872,12.5111954 15.7053571,12.5666541 C15.7341271,12.6221127 15.7485119,12.6958915 15.7485119,12.7879926 C15.7485119,12.8919777 15.7279268,12.9890289 15.686756,13.0791492 C15.6455851,13.1692696 15.5823417,13.2465145 15.4970238,13.3108862 C15.4136901,13.3732772 15.3157248,13.4210602 15.203125,13.4542363 C15.0905252,13.4874125 14.9538699,13.5040003 14.7931548,13.5040003 C14.6096221,13.5040003 14.4521336,13.4896407 14.3206845,13.460921 C14.1892355,13.4322013 14.0823417,13.400016 14,13.364364 L14,12.8786076 L14.0580357,12.8786076 C14.1433536,12.930105 14.2452871,12.9746694 14.3638393,13.012302 C14.4823915,13.0499347 14.5907733,13.0687508 14.6889881,13.0687508 C14.7465281,13.0687508 14.8090274,13.0640468 14.8764881,13.0546386 C14.9439488,13.0452304 15.0009918,13.0246813 15.047619,12.9929907 C15.0843256,12.9682323 15.1135912,12.9382752 15.1354167,12.9031183 C15.1572422,12.8679614 15.1681548,12.8172076 15.1681548,12.7508553 C15.1681548,12.6864835 15.153274,12.63672 15.1235119,12.6015632 C15.0937499,12.5664063 15.0545637,12.5414007 15.0059524,12.5265458 C14.957341,12.5107004 14.8988099,12.5020352 14.8303571,12.5005497 C14.7619044,12.4990642 14.698413,12.4983214 14.639881,12.4983214 L14.5178571,12.4983214 L14.5178571,12.1031802 L14.6443452,12.1031802 C14.7217266,12.1031802 14.7901783,12.1007044 14.8497024,12.0957527 C14.9092265,12.090801 14.9598212,12.0794124 15.0014881,12.0615864 C15.0451391,12.04277 15.0778769,12.0177645 15.0997024,11.986569 C15.1215279,11.9553734 15.1324405,11.9095713 15.1324405,11.8491609 C15.1324405,11.8045958 15.1210319,11.7686967 15.0982143,11.7414626 C15.0753967,11.7142284 15.0466272,11.692689 15.0119048,11.6768436 C14.9732141,11.6590176 14.9275796,11.6471339 14.875,11.6411918 C14.8224204,11.6352498 14.7772819,11.6322788 14.7395833,11.6322788 C14.6463289,11.6322788 14.5451394,11.6483715 14.4360119,11.6805574 C14.3268844,11.7127432 14.2212307,11.7590407 14.1190476,11.819451 L14.0639881,11.819451 L14.0639881,11.3396366 C14.1453377,11.3069556 14.2559517,11.2755131 14.3958333,11.2453079 C14.535715,11.2151027 14.6775786,11.2000003 14.8214286,11.2000003 C14.9613102,11.2000003 15.0838288,11.2121317 15.1889881,11.2363949 C15.2941474,11.2606581 15.380952,11.293091 15.4494048,11.3336947 C15.5307544,11.3822211 15.5912696,11.441145 15.6309524,11.5104684 C15.6706351,11.5797918 15.6904762,11.6609979 15.6904762,11.7540893 C15.6904762,11.8768907 15.6522821,11.9865685 15.5758929,12.083126 C15.4995036,12.1796836 15.3988101,12.2413309 15.2738095,12.2680699 L15.2738095,12.2888669 C15.324405,12.2957992 15.3779759,12.3096636 15.4345238,12.3304607 C15.4910717,12.3512577 15.5426585,12.3814624 15.5892857,12.4210758 Z M17.9732143,13.45795 L16.233631,13.45795 L16.233631,13.0925187 C16.3665681,12.9964563 16.4997513,12.8944535 16.6331845,12.7865071 C16.7666177,12.6785607 16.8735115,12.5854707 16.953869,12.5072343 C17.0739093,12.3913653 17.1592259,12.2903528 17.2098214,12.2041937 C17.2604169,12.1180347 17.2857143,12.0328672 17.2857143,11.9486889 C17.2857143,11.8476749 17.2532245,11.7696873 17.188244,11.7147237 C17.1232636,11.6597602 17.0297625,11.6322788 16.9077381,11.6322788 C16.8164678,11.6322788 16.7204866,11.6510949 16.6197917,11.6887276 C16.5190967,11.7263603 16.4255957,11.7743908 16.3392857,11.8328204 L16.2916667,11.8328204 L16.2916667,11.3411221 C16.3621035,11.3104218 16.4660211,11.279722 16.6034226,11.2490216 C16.7408241,11.2183212 16.8784715,11.2029713 17.016369,11.2029713 C17.2941482,11.2029713 17.5059517,11.2611525 17.6517857,11.3775168 C17.7976198,11.493881 17.8705357,11.6585215 17.8705357,11.8714432 C17.8705357,12.0110803 17.8355658,12.143783 17.765625,12.2695554 C17.6956842,12.3953278 17.5887904,12.5250596 17.4449405,12.6587547 C17.3546622,12.7419427 17.2638893,12.8184448 17.172619,12.8882634 C17.0813488,12.9580819 17.0163692,13.0068551 16.9776786,13.0345844 L17.9732143,13.0345844 L17.9732143,13.45795 Z M20,13.45795 L18.5208333,13.45795 L18.5208333,13.0717218 L18.9880952,13.0717218 L18.9880952,11.9026386 L18.5208333,11.9026386 L18.5208333,11.5416637 C18.5922623,11.5416637 18.660714,11.5374549 18.7261905,11.5290371 C18.791667,11.5206192 18.8462299,11.506012 18.889881,11.485215 C18.9414685,11.4604567 18.9801586,11.4282713 19.0059524,11.388658 C19.0317462,11.3490446 19.046627,11.2995287 19.0505952,11.2401086 L19.5431548,11.2401086 L19.5431548,13.0717218 L20,13.0717218 L20,13.45795 Z" fill="#111"/><ellipse stroke="#F8C41C" cx="17" cy="12" rx="4.5" ry="4.32" fill="none"></ellipse></g></svg>
