<?xml version="1.0" encoding="UTF-8"?>
<svg version="1.1" xmlns="http://www.w3.org/2000/svg" width="635" height="540">
<path d="M0 0 C0.79992057 -0.00235223 1.59984114 -0.00470446 2.42400172 -0.00712797 C5.12115657 -0.01381795 7.81826323 -0.01335975 10.51542568 -0.01294994 C12.4620696 -0.01624857 14.40871284 -0.01997413 16.3553552 -0.02409142 C21.71802649 -0.03411971 27.08068659 -0.03782955 32.44336593 -0.04048073 C38.22202428 -0.04438133 44.00067375 -0.05395985 49.77932644 -0.0626936 C63.74149613 -0.082465 77.70366655 -0.09252511 91.66584674 -0.10142139 C98.2388294 -0.10580321 104.81181126 -0.1111703 111.38479328 -0.11641026 C133.23143924 -0.13342327 155.07808447 -0.14794267 176.92473602 -0.155159 C178.33763749 -0.15563375 179.75053896 -0.15610964 181.16344043 -0.15658666 C181.86411009 -0.15682303 182.56477974 -0.15705941 183.2866818 -0.15730295 C186.83659818 -0.15850414 190.38651456 -0.15971959 193.93643093 -0.16094494 C194.64092163 -0.16118509 195.34541233 -0.16142524 196.07125123 -0.16167267 C218.9090122 -0.16956439 241.74672121 -0.1929934 264.5844595 -0.22550088 C288.73185457 -0.25980976 312.87921906 -0.27951 337.02663893 -0.28280324 C350.18881822 -0.28496935 363.35092115 -0.29373282 376.51307774 -0.31926441 C387.72186649 -0.34095651 398.93056034 -0.34902913 410.13936771 -0.33929763 C415.85815993 -0.33474865 421.57675629 -0.33667418 427.29552174 -0.35605907 C432.5333633 -0.37366041 437.77086566 -0.3727174 443.00871067 -0.35716178 C444.90110682 -0.35478113 446.79352626 -0.35913292 448.68588675 -0.37099043 C463.53982467 -0.45828149 475.05667383 1.15119795 486.05776882 12.01703358 C494.52586073 21.16687864 497.48313413 31.17888642 497.4032011 43.49420643 C497.40610798 44.2886768 497.40901487 45.08314716 497.41200984 45.90169239 C497.41927893 48.5502441 497.41238098 51.19856188 497.40548611 53.8471117 C497.40779176 55.77062314 497.41096898 57.69413369 497.4149406 59.6176424 C497.42328285 64.89309015 497.41916587 70.16846546 497.41296816 75.44391346 C497.40844237 81.13723712 497.41542807 86.83054833 497.420928 92.52386951 C497.42982227 103.67306618 497.42789983 114.82223592 497.42210272 125.97143364 C497.41758638 135.03245292 497.41697321 144.09346466 497.41915035 153.15448475 C497.41945682 154.44398517 497.41976328 155.73348559 497.42007904 157.06206179 C497.42071849 159.6816384 497.42136691 162.30121502 497.42202422 164.92079163 C497.42756502 188.7855633 497.42181851 212.65031968 497.41133903 236.51508892 C497.40184803 258.29439083 497.40269729 280.07366936 497.41226101 301.85297108 C497.42297347 326.33001846 497.42717829 350.80705083 497.42103648 375.28410053 C497.42039938 377.89405282 497.41977064 380.50400511 497.41915035 383.11395741 C497.4188418 384.39811149 497.41853325 385.68226558 497.41821535 387.00533342 C497.41648834 396.05570477 497.41940365 405.10606781 497.42410946 414.15643787 C497.42971801 425.18545255 497.42820236 436.21443875 497.41754797 447.24345016 C497.41229095 452.87083408 497.4102351 458.49817052 497.41684628 464.12555408 C497.42280711 469.27727655 497.4195283 474.42890755 497.40889117 479.58062172 C497.40665773 481.44389124 497.40779218 483.3071685 497.41264275 485.17043304 C497.41873492 487.70514341 497.41247528 490.23954154 497.4032011 492.77423573 C497.40788344 493.49564495 497.41256577 494.21705418 497.41738999 494.96032429 C497.33427762 506.34552305 493.88914177 516.4623492 486.08901882 524.88422108 C477.7979283 532.73015238 468.51859199 536.29077119 457.30303764 536.26844215 C456.50311707 536.27079438 455.70319651 536.27314661 454.87903592 536.27557012 C452.18188108 536.28226011 449.48477441 536.2818019 446.78761196 536.2813921 C444.84096804 536.28469072 442.8943248 536.28841629 440.94768244 536.29253358 C435.58501115 536.30256186 430.22235105 536.30627171 424.85967171 536.30892289 C419.08101336 536.31282349 413.30236389 536.322402 407.5237112 536.33113575 C393.56154152 536.35090715 379.5993711 536.36096727 365.63719091 536.36986354 C359.06420824 536.37424536 352.49122639 536.37961245 345.91824436 536.38485241 C324.0715984 536.40186542 302.22495317 536.41638482 280.37830162 536.42360115 C278.96540015 536.42407591 277.55249868 536.4245518 276.13959721 536.42502881 C275.08859273 536.42538338 275.08859273 536.42538338 274.01635584 536.4257451 C270.46643946 536.4269463 266.91652308 536.42816175 263.36660671 536.42938709 C262.66211601 536.42962724 261.95762531 536.42986739 261.23178641 536.43011482 C238.39402544 536.43800655 215.55631643 536.46143555 192.71857815 536.49394304 C168.57118307 536.52825192 144.42381858 536.54795215 120.27639872 536.55124539 C107.11421943 536.5534115 93.95211649 536.56217497 80.78995991 536.58770657 C69.58117115 536.60939867 58.3724773 536.61747128 47.16366994 536.60773978 C41.44487771 536.6031908 35.72628135 536.60511634 30.00751591 536.62450123 C24.76967434 536.64210257 19.53217198 536.64115955 14.29432697 536.62560394 C12.40193083 536.62322328 10.50951138 536.62757508 8.6171509 536.63943259 C-6.23678703 536.72672364 -17.75363618 535.11724421 -28.75473118 524.25140858 C-37.22282308 515.10156351 -40.18009648 505.08955573 -40.10016346 492.77423573 C-40.10307034 491.97976536 -40.10597722 491.18529499 -40.10897219 490.36674976 C-40.11624129 487.71819806 -40.10934334 485.06988027 -40.10244846 482.42133045 C-40.10475411 480.49781902 -40.10793134 478.57430847 -40.11190295 476.65079975 C-40.12024521 471.375352 -40.11612823 466.09997669 -40.10993052 460.82452869 C-40.10540473 455.13120504 -40.11239042 449.43789382 -40.11789036 443.74457264 C-40.12678463 432.59537597 -40.12486219 421.44620624 -40.11906508 410.29700851 C-40.11454873 401.23598923 -40.11393557 392.17497749 -40.11611271 383.11395741 C-40.11641918 381.82445698 -40.11672564 380.53495656 -40.11704139 379.20638037 C-40.11768084 376.58680375 -40.11832927 373.96722714 -40.11898658 371.34765053 C-40.12452738 347.48287885 -40.11878087 323.61812248 -40.10830138 299.75335324 C-40.09881038 277.97405132 -40.09965965 256.19477279 -40.10922337 234.41547108 C-40.11993582 209.93842369 -40.12414065 185.46139132 -40.11799884 160.98434162 C-40.11736174 158.37438933 -40.116733 155.76443704 -40.11611271 153.15448475 C-40.11580416 151.87033066 -40.11549561 150.58617658 -40.11517771 149.26310873 C-40.11345069 140.21273739 -40.11636601 131.16237434 -40.12107182 122.11200428 C-40.12668036 111.08298961 -40.12516471 100.0540034 -40.11451033 89.02499199 C-40.1092533 83.39760808 -40.10719746 77.77027163 -40.11380863 72.14288807 C-40.11976946 66.9911656 -40.11649066 61.83953461 -40.10585353 56.68782043 C-40.10362009 54.82455091 -40.10475453 52.96127366 -40.1096051 51.09800911 C-40.11569728 48.56329874 -40.10943763 46.02890061 -40.10016346 43.49420643 C-40.10484579 42.7727972 -40.10952812 42.05138798 -40.11435235 41.30811787 C-40.03123998 29.9229191 -36.58610413 19.80609296 -28.78598118 11.38422108 C-20.49489066 3.53828978 -11.21555435 -0.02232903 0 0 Z M60.15151882 79.13422108 C59.21823757 79.62019764 58.28495632 80.1061742 57.32339382 80.60687733 C45.89479426 87.21110904 38.98947368 97.25813816 35.37026882 109.85297108 C32.75571885 121.8248578 34.59076944 133.50889575 40.87808132 144.02093983 C46.94534629 152.88011358 54.29069086 158.93541691 64.15151882 163.13422108 C65.51276882 163.72203358 65.51276882 163.72203358 66.90151882 164.32172108 C79.64284711 167.50705315 92.36542595 165.95205969 103.91323757 159.56390858 C113.92708498 153.16762908 120.75097532 143.63499519 124.49136257 132.34906483 C127.20052937 119.15590343 125.51524373 106.91420111 118.40151882 95.44672108 C111.13558491 85.35714453 101.61704408 77.7554139 89.15151882 75.13422108 C78.9007204 74.51449986 69.4652724 74.26040903 60.15151882 79.13422108 Z M256.39761257 223.11468983 C252.8799311 227.29864163 249.96846747 230.93495263 248.15151882 236.13422108 C247.16151882 236.13422108 246.17151882 236.13422108 245.15151882 236.13422108 C245.15151882 224.91422108 245.15151882 213.69422108 245.15151882 202.13422108 C220.40151882 202.13422108 195.65151882 202.13422108 170.15151882 202.13422108 C170.15151882 285.95422108 170.15151882 369.77422108 170.15151882 456.13422108 C195.89151882 456.13422108 221.63151882 456.13422108 248.15151882 456.13422108 C248.2005032 446.44176014 248.24948757 436.7492992 248.29995632 426.76312733 C248.33537087 420.59710313 248.37126913 414.43108793 248.40933132 408.26508045 C248.46956322 398.49321068 248.52790511 388.72135764 248.57339382 378.94940662 C248.60654415 371.82996538 248.64649855 364.71059876 248.69430888 357.59124035 C248.71934738 353.82865534 248.74119261 350.06611837 248.75486279 346.30347347 C248.96123317 291.65762334 248.96123317 291.65762334 263.15151882 276.13422108 C272.75486408 266.75515777 285.42670483 264.87899716 298.27212429 264.88544178 C308.55487007 265.02996167 317.00716768 267.71615257 324.80386257 274.59125233 C340.66945635 291.18351452 337.62456917 319.36337403 337.65762973 340.54149461 C337.66711431 344.61607535 337.69332437 348.6905508 337.71763515 352.76506519 C337.76102996 360.45328428 337.78974178 368.14148262 337.81295854 375.82978624 C337.84525849 386.23838052 337.90068637 396.64685128 337.95470428 407.05535126 C338.039007 423.4149374 338.09279465 439.77447677 338.15151882 456.13422108 C363.89151882 456.13422108 389.63151882 456.13422108 416.15151882 456.13422108 C416.93895163 395.82351269 416.93895163 395.82351269 417.27651882 335.50922108 C417.27901638 334.55743977 417.28151394 333.60565845 417.28408718 332.62503529 C417.30728471 322.08465734 417.11693217 311.56591935 416.71792507 301.03265858 C416.68075375 300.02101643 416.64358242 299.00937428 416.60528469 297.9670763 C415.33493607 267.42249373 409.45223566 236.307584 386.46401882 214.44672108 C350.11513572 184.4912186 287.8153196 188.13592642 256.39761257 223.11468983 Z M41.15151882 202.13422108 C41.15151882 285.95422108 41.15151882 369.77422108 41.15151882 456.13422108 C66.89151882 456.13422108 92.63151882 456.13422108 119.15151882 456.13422108 C119.15151882 372.31422108 119.15151882 288.49422108 119.15151882 202.13422108 C93.41151882 202.13422108 67.67151882 202.13422108 41.15151882 202.13422108 Z " fill="#2867B2" transform="translate(39.84848117828369,-0.13422107696533203)"/>
<path d="M0 0 C8.53471967 6.10637181 14.13699806 14.7557122 16.00390625 25.0859375 C17.47857054 37.01731222 14.14910325 46.24169936 7.78515625 56.2421875 C0.01708395 64.0102598 -9.91567839 68.59840021 -20.90234375 68.9921875 C-32.28983074 68.56043444 -41.50503201 64.70739427 -49.46484375 56.4921875 C-56.01093929 48.14695365 -59.31810229 38.07259333 -58.46484375 27.4921875 C-56.96372763 17.00290694 -52.49816903 8.51486863 -44.46484375 1.4921875 C-30.40458553 -7.12422716 -14.47889162 -8.85713497 0 0 Z M-46.46484375 11.4921875 C-52.52621849 20.02069204 -53.77703148 28.19830097 -52.46484375 38.4921875 C-50.27618754 47.61158838 -45.41966996 53.8209791 -37.58984375 58.8046875 C-29.50117892 63.35228767 -21.68270829 64.73862902 -12.58984375 62.3671875 C-2.77281025 59.13456797 3.55213186 53.54721243 8.53515625 44.4921875 C11.75787486 36.5162284 11.89830839 27.22865223 8.97265625 19.1171875 C4.6456901 9.87114404 -2.39667403 3.89655663 -11.77734375 0.1796875 C-25.35793465 -2.35228707 -37.34535593 0.72907106 -46.46484375 11.4921875 Z " fill="#2867B2" transform="translate(618.46484375,471.5078125)"/>
<path d="M0 0 C3.50625 -0.0825 7.0125 -0.165 10.625 -0.25 C11.71893066 -0.28641602 12.81286133 -0.32283203 13.93994141 -0.36035156 C19.94894168 -0.42869829 23.46221293 -0.07044023 28 4 C29.97949221 7.95898442 29.55905203 12.69529938 29 17 C26.32631966 20.71344492 24.37873809 22.08308476 20 23 C20.721875 24.05960937 21.44375 25.11921875 22.1875 26.2109375 C23.12524162 27.5987951 24.06272848 28.98682488 25 30.375 C25.47695313 31.07367187 25.95390625 31.77234375 26.4453125 32.4921875 C27.12207031 33.49765625 27.12207031 33.49765625 27.8125 34.5234375 C28.44091797 35.450354 28.44091797 35.450354 29.08203125 36.39599609 C30 38 30 38 30 40 C26.83984375 40.4609375 26.83984375 40.4609375 23 40 C20.65639066 37.8746643 19.16579424 35.33256623 17.5625 32.625 C17.11712891 31.92632813 16.67175781 31.22765625 16.21289062 30.5078125 C13 25.37508401 13 25.37508401 13 23 C10.69 23 8.38 23 6 23 C6 28.61 6 34.22 6 40 C4.02 40 2.04 40 0 40 C0 26.8 0 13.6 0 0 Z M6 5 C6 8.96 6 12.92 6 17 C8.08218362 17.10832169 10.16599129 17.18573541 12.25 17.25 C13.41015625 17.29640625 14.5703125 17.3428125 15.765625 17.390625 C19.07354245 17.26964898 19.07354245 17.26964898 21.41796875 15.14453125 C23.24278316 13.10023601 23.24278316 13.10023601 23.0625 10.4375 C22.1449572 7.90957999 22.1449572 7.90957999 20.125 6.1875 C15.36832701 4.37996426 11.06938996 4.81676904 6 5 Z " fill="#2867B2" transform="translate(584,483)"/>
</svg>
